<svg width="25" height="21" viewBox="0 0 25 21" fill="none" xmlns="http://www.w3.org/2000/svg">
<path d="M17.4899 7.37077C18.4488 7.37077 19.2262 6.59338 19.2262 5.63441C19.2262 4.67544 18.4488 3.89805 17.4899 3.89805C16.5309 3.89805 15.7535 4.67544 15.7535 5.63441C15.7535 6.59338 16.5309 7.37077 17.4899 7.37077Z" fill="#1A1A1A" stroke="#1A1A1A" stroke-width="0.2"/>
<path d="M19.8674 19.462H20.0999L19.94 19.2932L14.734 13.7994L16.7034 11.5817L22.575 17.778L22.6975 17.9073L22.7441 17.7354L23.2448 15.8879L23.2595 15.8338L23.2209 15.793L16.7344 8.94645L16.6594 8.86734L16.587 8.94881L13.4652 12.4624L8.618 7.34772L8.54304 7.26863L8.47066 7.35008L1.26412 15.4599L1.19766 15.5347L1.27248 15.6011L2.49648 16.6877L2.57124 16.754L2.63763 16.6793L8.58545 9.98293L17.5416 19.4308L17.5711 19.462H17.6141H19.8674Z" fill="#1A1A1A" stroke="#1A1A1A" stroke-width="0.2"/>
<path d="M21.5817 19.5435H3.58168C2.6784 19.5435 1.94531 18.8104 1.94531 17.9071V3.17982C1.94531 2.27655 2.6784 1.54346 3.58168 1.54346H21.5817C22.485 1.54346 23.218 2.27655 23.218 3.17982V17.9071C23.218 18.8104 22.485 19.5435 21.5817 19.5435Z" stroke="#1A1A1A" stroke-width="2" stroke-miterlimit="10"/>
</svg>
